<svg xmlns="http://www.w3.org/2000/svg" xmlns:xlink="http://www.w3.org/1999/xlink" width="60" height="200">
    <defs>
      <symbol id="stars"><path d="M7.785 2.873c.197.418.576.709 1.022.773l2.613.397c.555.085.778.8.372 1.211L9.897 7.19a1.466 1.466 0 0 0-.393 1.254l.447 2.728c.095.581-.487 1.02-.981.744l-2.342-1.29a1.285 1.285 0 0 0-1.259 0l-2.342 1.29c-.494.277-1.076-.17-.981-.744l.447-2.728A1.445 1.445 0 0 0 2.1 7.19L.205 5.254c-.4-.41-.183-1.126.372-1.211l2.613-.397c.44-.064.819-.355 1.022-.773l1.17-2.48a.663.663 0 0 1 1.212 0l1.191 2.48z" /></symbol>
     <symbol id="user"><path fill-rule="evenodd" clip-rule="evenodd" d="M9.273 3.273a3.273 3.273 0 1 1-6.546 0 3.273 3.273 0 0 1 6.546 0zM6 7.09a10.49 10.49 0 0 1 4.658 1.227A2.455 2.455 0 0 1 12 10.511v.398A1.09 1.09 0 0 1 10.91 12H1.09A1.09 1.09 0 0 1 0 10.909V10.5a2.455 2.455 0 0 1 1.342-2.182A10.49 10.49 0 0 1 6 7.091z" /></symbol>
     <symbol id="comment"><path d="M6 11.3v-.83c0-.385-.3-.699-.667-.699h-.666C2.087 9.771 0 7.587 0 4.886 0 2.185 2.087 0 4.667 0h2.666C9.913 0 12 2.185 12 4.886c0 3.078-3.247 5.779-4.96 6.993-.447.314-1.04-.02-1.04-.58z" /></symbol>
     <symbol id="download"><path fill-rule="evenodd" clip-rule="evenodd" d="M8.192 8.66a.592.592 0 0 0-.837 0l-.838.838a.592.592 0 0 0 0 .837l4.72 4.72c.02.02.396.245.77.245.369 0 .736-.225.757-.245l4.72-4.72a.592.592 0 0 0 0-.837l-.838-.838a.592.592 0 0 0-.838 0l-2.665 2.665V5.572A.572.572 0 0 0 12.571 5H11.43a.572.572 0 0 0-.572.572v5.753L8.192 8.66zM6.286 19.87h11.428A2.285 2.285 0 0 0 20 17.586v-2.857a.571.571 0 0 0-.571-.571h-1.143a.571.571 0 0 0-.572.57v1.715c0 .632-.511 1.143-1.142 1.143H7.428a1.143 1.143 0 0 1-1.143-1.143v-1.714a.571.571 0 0 0-.572-.571H4.571a.571.571 0 0 0-.571.57v2.858a2.286 2.286 0 0 0 2.286 2.286z" /></symbol>
    <symbol id="pay"><path d="M8.566 19.85l11.032-7.02a.98.98 0 0 0 0-1.65L8.566 4.17c-.663-.42-1.516.05-1.516.82v14.04c0 .78.853 1.24 1.516.82z" /></symbol>
    <symbol id="loading"><path d="M10.0124 2.37923C10.0124 3.14102 9.37939 3.75847 8.59838 3.75847C7.81744 3.75847 7.18434 3.14102 7.18434 2.37923C7.18442 1.61744 7.81744 1 8.59838 1C9.37932 1 10.0124 1.61752 10.0124 2.37923ZM8.59838 12.5864C7.91502 12.5864 7.36114 13.1268 7.36114 13.7932C7.36114 14.4597 7.9151 15 8.59838 15C9.28166 15 9.83562 14.4597 9.83562 13.7932C9.83562 13.1268 9.28174 12.5864 8.59838 12.5864ZM14.4495 8.94825C13.9613 8.94825 13.5657 8.56241 13.5657 8.08622C13.5657 7.61012 13.9613 7.2242 14.4495 7.2242C14.9377 7.2242 15.3333 7.61012 15.3333 8.08622C15.3332 8.56233 14.9375 8.94825 14.4495 8.94825ZM4.16133 8.08622C4.16133 7.32451 3.5283 6.70699 2.74729 6.70699C1.96635 6.70699 1.33325 7.32444 1.33325 8.08622C1.33325 8.84794 1.96628 9.46546 2.74729 9.46546C3.5283 9.46546 4.16133 8.84794 4.16133 8.08622ZM5.46101 3.07556C6.01324 3.61419 6.01324 4.48745 5.46101 5.02601C4.90879 5.56464 4.01349 5.56464 3.46127 5.02601C2.90905 4.48738 2.90905 3.61412 3.46127 3.07549C4.01349 2.53686 4.90879 2.53686 5.46101 3.07556ZM11.9858 11.3903C11.5717 11.7943 11.5717 12.4492 11.9858 12.8532C12.3999 13.2572 13.0714 13.2572 13.4856 12.8532C13.8997 12.4492 13.8997 11.7943 13.4856 11.3903C13.0715 10.9862 12.4 10.9862 11.9858 11.3903ZM13.2357 4.53838C12.9596 4.80769 12.5119 4.80769 12.2359 4.53838C11.9597 4.26899 11.9597 3.83236 12.2359 3.56312C12.3015 3.49906 12.3795 3.44825 12.4652 3.41358C12.551 3.37891 12.643 3.36107 12.7358 3.36107C12.8287 3.36107 12.9206 3.37891 13.0064 3.41358C13.0921 3.44825 13.1701 3.49906 13.2357 3.56312C13.5118 3.83244 13.5118 4.26914 13.2357 4.53838ZM5.46101 11.1464C4.90879 10.6078 4.01349 10.6078 3.46127 11.1464C2.90905 11.6851 2.90905 12.5583 3.46127 13.0969C4.01349 13.6355 4.90879 13.6355 5.46094 13.0969C6.01316 12.5583 6.01316 11.6851 5.46101 11.1464Z" /></symbol>
    </defs>

    <use x="0" y="0" fill="#FA8B16" xlink:href="#stars"/>
    <use x="0" y="12" fill="#A6A6A6" xlink:href="#user"/>
    <use x="0" y="24" fill="#A6A6A6" xlink:href="#comment"/>
    <use x="0" y="48" fill="#fff" xlink:href="#download"/>
    <use x="0" y="72" fill="#fff"  xlink:href="#pay"/>
    <use x="0" y="100" fill="#fff"  xlink:href="#loading"/>
</svg>
