<svg width="18" height="24" viewBox="0 0 18 24" fill="none" xmlns="http://www.w3.org/2000/svg">
<path d="M15.8303 0.0109091L4.98169 0C3.78835 0 2.81198 0.981818 2.81198 2.18182V5.45455C2.81198 6.05455 3.30016 6.54545 3.89684 6.54545C4.49351 6.54545 4.98169 6.05455 4.98169 5.45455V4.36364H15.8303V19.6364H4.98169V18.5455C4.98169 17.9455 4.49351 17.4545 3.89684 17.4545C3.30016 17.4545 2.81198 17.9455 2.81198 18.5455V21.8182C2.81198 23.0182 3.78835 24 4.98169 24H15.8303C17.0236 24 18 23.0182 18 21.8182V2.18182C18 0.981818 17.0236 0.0109091 15.8303 0.0109091ZM8.23627 15.2727C8.83294 15.2727 9.32113 14.7818 9.32113 14.1818V8.72727C9.32113 8.12727 8.83294 7.63636 8.23627 7.63636H2.81198C2.2153 7.63636 1.72712 8.12727 1.72712 8.72727C1.72712 9.32727 2.2153 9.81818 2.81198 9.81818H5.62176L0.316801 15.1527C0.113957 15.3567 0 15.6334 0 15.9218C0 16.2103 0.113957 16.4869 0.316801 16.6909C0.519646 16.8949 0.794761 17.0095 1.08163 17.0095C1.36849 17.0095 1.64361 16.8949 1.84645 16.6909L7.15141 11.3564V14.1818C7.15141 14.7818 7.6396 15.2727 8.23627 15.2727Z" fill="white"/>
</svg>
