<svg width="24" height="24" viewBox="0 0 24 24" fill="none" xmlns="http://www.w3.org/2000/svg">
<rect width="24" height="24" fill="white"/>
<path d="M16.6124 4.00727L9.33962 4C8.53962 4 7.88508 4.65455 7.88508 5.45455V7.63636C7.88508 8.03636 8.21235 8.36364 8.61235 8.36364C9.01235 8.36364 9.33962 8.03636 9.33962 7.63636V6.90909H16.6124V17.0909H9.33962V16.3636C9.33962 15.9636 9.01235 15.6364 8.61235 15.6364C8.21235 15.6364 7.88508 15.9636 7.88508 16.3636V18.5455C7.88508 19.3455 8.53962 20 9.33962 20H16.6124C17.4124 20 18.0669 19.3455 18.0669 18.5455V5.45455C18.0669 4.65455 17.4124 4.00727 16.6124 4.00727ZM11.5214 14.1818C11.9214 14.1818 12.2487 13.8545 12.2487 13.4545V9.81818C12.2487 9.41818 11.9214 9.09091 11.5214 9.09091H7.88508C7.48508 9.09091 7.1578 9.41818 7.1578 9.81818C7.1578 10.2182 7.48508 10.5455 7.88508 10.5455H9.76871L6.21235 14.1018C6.07637 14.2378 5.99997 14.4222 5.99997 14.6145C5.99997 14.8069 6.07637 14.9913 6.21235 15.1273C6.34833 15.2633 6.53277 15.3397 6.72508 15.3397C6.91739 15.3397 7.10182 15.2633 7.2378 15.1273L10.7942 11.5709V13.4545C10.7942 13.8545 11.1214 14.1818 11.5214 14.1818Z" fill="#666666"/>
</svg>
