<svg width="24" height="24" viewBox="0 0 24 24" fill="none" xmlns="http://www.w3.org/2000/svg">
<path fill-rule="evenodd" clip-rule="evenodd" d="M11.0548 4.89998C7.64874 4.89998 4.9001 7.64948 4.9001 11.0588C4.9001 14.4673 7.65736 17.2176 11.0548 17.2176C12.7413 17.2176 14.2667 16.5435 15.377 15.4489C15.3886 15.4358 15.4007 15.423 15.4133 15.4105C15.4251 15.3986 15.4373 15.3871 15.4496 15.376C16.5388 14.2658 17.2094 12.7428 17.2094 11.0588C17.2094 7.64948 14.4608 4.89998 11.0548 4.89998ZM17.2866 16.0117C18.3656 14.6534 19.0094 12.9327 19.0094 11.0588C19.0094 6.65637 15.4559 3.09998 11.0548 3.09998C6.65363 3.09998 3.1001 6.65637 3.1001 11.0588C3.1001 15.462 6.66382 19.0176 11.0548 19.0176C12.9326 19.0176 14.6561 18.3702 16.0152 17.2859L19.3635 20.6362C19.7149 20.9878 20.2847 20.9879 20.6363 20.6366C20.9879 20.2852 20.988 19.7154 20.6367 19.3638L17.2866 16.0117Z" fill="white"/>
</svg>
