<svg width="14" height="14" viewBox="0 0 14 14" fill="none" xmlns="http://www.w3.org/2000/svg">
<path d="M7.32922 7.17609C7.32922 8.27094 6.75883 8.96383 5.84773 8.96383C4.93664 8.96383 4.36625 8.27094 4.36625 7.17609C4.36625 6.07742 4.93664 5.38836 5.84773 5.38836C6.75883 5.38836 7.32922 6.07742 7.32922 7.17609ZM13.125 4.24375V9.75625C13.125 10.1927 13.1212 10.8817 12.8838 11.4942C12.7652 11.7966 12.4895 12.2216 12.0991 12.524C11.8732 12.6962 11.6052 12.8647 11.2377 12.9719C10.8434 13.0867 10.3573 13.125 9.75625 13.125H4.24375C3.64273 13.125 3.15656 13.0867 2.76227 12.968C2.39477 12.857 2.1268 12.6924 1.90094 12.5202C1.51047 12.2216 1.23484 11.7928 1.11617 11.4904C0.878828 10.8817 0.875 10.1927 0.875 9.75625V4.24375C0.875 3.80734 0.878828 3.11828 1.11617 2.50578C1.23484 2.20336 1.51047 1.77844 1.90094 1.47602C2.1268 1.30375 2.39477 1.13531 2.76227 1.02812C3.15656 0.913281 3.64273 0.875 4.24375 0.875H9.75625C10.3611 0.875 10.8434 0.913281 11.2377 1.03195C11.6052 1.14297 11.877 1.30758 12.0991 1.47984C12.4895 1.77844 12.7652 2.20719 12.8838 2.50961C13.1212 3.11828 13.125 3.80734 13.125 4.24375ZM3.01684 9.40023C3.168 9.40023 3.29055 9.27769 3.29055 9.12652V7.01723C3.29055 6.86606 3.168 6.74352 3.01684 6.74352C2.86567 6.74352 2.74313 6.86606 2.74313 7.01723V9.12652C2.74313 9.27769 2.86567 9.40023 3.01684 9.40023ZM3.32883 6.00469C3.32883 5.83242 3.19102 5.69078 3.01492 5.69078C2.84266 5.69078 2.70102 5.82859 2.70102 6.00469C2.70102 6.17695 2.84266 6.31859 3.01492 6.31859C3.19102 6.31477 3.32883 6.17695 3.32883 6.00469ZM7.89961 7.17609C7.89961 5.76352 7.11102 4.87539 5.84773 4.87539C4.58445 4.87539 3.79586 5.76352 3.79586 7.17609C3.79586 8.58867 4.58445 9.47297 5.84773 9.47297C7.11102 9.47297 7.89961 8.58867 7.89961 7.17609ZM11.4521 8.13695C11.4521 7.50914 11.0846 7.13781 10.1582 6.93492L9.66437 6.82773C9.0557 6.69375 8.81836 6.45258 8.81836 6.10422C8.81836 5.64867 9.24711 5.3807 9.80219 5.3807C10.2762 5.3807 10.6182 5.57888 10.7555 5.91521C10.811 6.05112 10.9283 6.16547 11.0751 6.16547C11.2372 6.16547 11.3704 6.0291 11.3282 5.87261C11.1676 5.27721 10.5856 4.87922 9.8175 4.87922C8.89492 4.87922 8.24797 5.39602 8.24797 6.12719C8.24797 6.75883 8.63461 7.16461 9.52656 7.35602L10.0204 7.4632C10.6367 7.59719 10.8855 7.84602 10.8855 8.21734C10.8855 8.65758 10.4453 8.97149 9.8443 8.97149C9.3193 8.97149 8.92597 8.77528 8.76606 8.44011C8.7046 8.31129 8.58943 8.20203 8.44669 8.20203C8.28129 8.20203 8.14719 8.34428 8.19555 8.50245C8.37779 9.09853 8.97457 9.46914 9.81367 9.46914C10.8052 9.47297 11.4521 8.96 11.4521 8.13695Z" fill="#00A6ED"/>
</svg>
