 <svg width="16" height="16" viewBox="0 0 16 14" fill="none" xmlns="http://www.w3.org/2000/svg">
    <path fill-rule="evenodd" clip-rule="evenodd" d="M5.46135 5.7733C5.30722 5.61921 5.05718 5.61921 4.90306 5.7733L4.34465 6.33173C4.19052 6.48586 4.19052 6.73575 4.34465 6.89002L7.49115 10.0364C7.50478 10.0502 7.75528 10.1999 8.00428 10.1997C8.2506 10.1996 8.49539 10.05 8.509 10.0364L11.6554 6.89002C11.8095 6.73576 11.8095 6.48586 11.6554 6.33173L11.097 5.7733C10.9429 5.61921 10.6929 5.61921 10.5388 5.7733L8.76199 7.55016V3.71443C8.76199 3.50409 8.59133 3.33337 8.38096 3.33337H7.61908C7.40877 3.33337 7.2382 3.50409 7.2382 3.71443V7.55016L5.46135 5.7733ZM4.1904 13.2472H11.8095C12.6511 13.2472 13.3333 12.5652 13.3333 11.7235V9.81867C13.3333 9.60834 13.1627 9.43779 12.9524 9.43779H12.1905C11.9801 9.43779 11.8095 9.60834 11.8095 9.81867V10.9616C11.8095 11.3824 11.4684 11.7235 11.0476 11.7235H4.95229C4.53148 11.7235 4.1904 11.3824 4.1904 10.9616V9.81867C4.1904 9.60834 4.01987 9.43779 3.80953 9.43779H3.0475C2.83729 9.43779 2.66663 9.60834 2.66663 9.81867V11.7235C2.66663 12.5652 3.34891 13.2472 4.1904 13.2472Z" fill="white"/>
</svg>