<svg width="20" height="20" viewBox="0 0 20 20" fill="none" xmlns="http://www.w3.org/2000/svg">
<path d="M10 16.5941H0.819672C0.819672 16.5941 0 16.5148 0 15.7624C0 15.0099 0.696721 14.9703 0.696721 14.9703C0.696721 14.9703 3.44262 13.703 3.44262 12.7921C3.44262 11.8812 2.9918 11.2475 2.9918 7.52475C2.9918 3.80198 5.45082 0.950496 8.40164 0.950496C8.40164 0.950496 8.81147 0 10 0C11.1475 0 11.5574 0.950496 11.5574 0.950496C14.5082 0.950496 16.9672 3.80198 16.9672 7.52475C16.9672 11.2475 16.5574 11.8812 16.5574 12.7921C16.5574 13.703 19.3033 14.9703 19.3033 14.9703C19.3033 14.9703 20 15.0099 20 15.7624C20 16.4752 19.1393 16.5941 19.1393 16.5941H10V16.5941ZM7.04918 17.5049H12.9918C12.9918 17.5049 12.582 20 10.041 20C7.5 20 7.04918 17.5049 7.04918 17.5049Z" fill="white"/>
</svg>
