<svg width="31" height="30" viewBox="0 0 31 30" fill="none" xmlns="http://www.w3.org/2000/svg">
<rect x="0.800049" width="30" height="30" rx="15" fill="#F6822A"/>
<path fill-rule="evenodd" clip-rule="evenodd" d="M12.1181 11.7885C12.1181 9.88029 13.665 8.33334 15.5732 8.33334C17.4814 8.33334 19.0283 9.88029 19.0283 11.7885C19.0283 13.6967 17.4814 15.2438 15.5732 15.2438C13.665 15.2438 12.1181 13.6967 12.1181 11.7885ZM14.1449 11.7885C14.1449 12.5773 14.7844 13.2168 15.5732 13.2168C16.362 13.2168 17.0015 12.5773 17.0015 11.7885C17.0015 10.9997 16.362 10.3603 15.5732 10.3603C14.7844 10.3603 14.1449 10.9997 14.1449 11.7885ZM19.0491 17.021C19.0053 17.0562 18.1764 17.7113 16.7932 17.993L18.8811 20.0624C19.2483 20.429 19.2487 21.0238 18.8821 21.391C18.5155 21.7581 17.9208 21.7587 17.5535 21.392L15.5265 19.4181L13.6854 21.3793C13.501 21.5705 13.2552 21.6667 13.009 21.6667C12.7743 21.6667 12.5393 21.5793 12.357 21.4035C11.9835 21.0434 11.9726 20.4486 12.3328 20.0751L14.3146 18.004C12.8926 17.7288 12.0295 17.0567 11.9851 17.021C11.5803 16.6964 11.5153 16.1052 11.8399 15.7004C12.1644 15.2956 12.7557 15.2306 13.1605 15.5551C13.1691 15.5621 14.0718 16.2403 15.5264 16.2412C16.9811 16.2403 17.8651 15.5621 17.8737 15.5551C18.2785 15.2306 18.8698 15.2956 19.1943 15.7004C19.5189 16.1052 19.4539 16.6964 19.0491 17.021Z" fill="white"/>
</svg>
