<svg width="10" height="10" viewBox="0 0 10 10" fill="none" xmlns="http://www.w3.org/2000/svg">
<path fill-rule="evenodd" clip-rule="evenodd" d="M7.72726 2.72727C7.72726 4.2335 6.50622 5.45454 4.99999 5.45454C3.49376 5.45454 2.27272 4.2335 2.27272 2.72727C2.27272 1.22104 3.49376 0 4.99999 0C6.50622 0 7.72726 1.22104 7.72726 2.72727ZM5 5.90905C6.35576 5.9442 7.68474 6.29434 8.88181 6.93178C9.2189 7.10322 9.50186 7.36475 9.69925 7.68732C9.89664 8.00989 10.0007 8.38087 10 8.75905V9.09087C10 9.33197 9.90422 9.5632 9.73373 9.73369C9.56324 9.90418 9.33201 9.99996 9.09091 9.99996H0.909091C0.667985 9.99996 0.436754 9.90418 0.266266 9.73369C0.0957789 9.5632 0 9.33197 0 9.09087V8.74996C0.000924144 8.37333 0.105818 8.00426 0.303121 7.68345C0.500423 7.36263 0.782473 7.10252 1.11818 6.93178C2.31526 6.29434 3.64424 5.9442 5 5.90905Z" fill="#C5C5C5"/>
</svg>
