<?xml version="1.0" encoding="utf-8"?><svg viewBox="0 0 600 500" xmlns="http://www.w3.org/2000/svg" xmlns:xlink="http://www.w3.org/1999/xlink"><style>:root>svg{display:none}:root>svg:target{display:block}</style><svg fill="none" viewBox="0 0 30 30" id="emoji-cry" xmlns="http://www.w3.org/2000/svg"><g clip-path="url(#aa)"><rect width="30" height="30" rx="15" fill="#FED83C"/><path opacity=".504" fill-rule="evenodd" clip-rule="evenodd" d="M20.42 1.611c-.025.037-.064.056-.117.059a14.885 14.885 0 0 0-7.676-.85 26.44 26.44 0 0 0-2.52.616C13.56.22 16.997.279 20.42 1.61Z" fill="#FFCF54"/><path fill-rule="evenodd" clip-rule="evenodd" d="M20.694.948c4.423 1.816 7.352 4.898 8.786 9.247.319 1.038.492 2.098.52 3.178a.88.88 0 0 1-.612.116c-.14-3.28-1.508-6.005-4.102-8.178a11.557 11.557 0 0 0-2.45-1.589c-.37-.897-1.064-1.311-2.08-1.242a1.76 1.76 0 0 0-.368.26c.002-.058-.029-.096-.092-.116-.3-.092-.596-.169-.888-.23.1.011.193-.008.276-.059.071-.395-.102-.558-.52-.49a.471.471 0 0 0 0 .432c-4.52-1.041-8.765-.434-12.735 1.82-3.018 1.83-4.906 4.4-5.664 7.716a19.908 19.908 0 0 0-.153 1.676.88.88 0 0 1-.612-.116C.305 8.954 2.305 5.4 6 2.711A14.118 14.118 0 0 1 9.918.775a28.99 28.99 0 0 1 2.633-.607 16.415 16.415 0 0 1 8.02.838c.056-.002.097-.022.123-.058Z" fill="#FFE268"/><path fill-rule="evenodd" clip-rule="evenodd" d="M19.19 3.076a.41.41 0 0 1-.235-.117.503.503 0 0 1 0-.44c.4-.068.567.098.498.499a.38.38 0 0 1-.264.058Z" fill="#F6F8F7"/><path fill-rule="evenodd" clip-rule="evenodd" d="M22.47 4.424c.1.722-.202 1.112-.907 1.172-.624-.076-1.092-.388-1.407-.938-.25-.41-.26-.82-.03-1.23.104-.101.22-.19.352-.264.974-.07 1.638.35 1.993 1.26Z" fill="#F6F9FB"/><path fill-rule="evenodd" clip-rule="evenodd" d="M22.646 5.01c.583-.061.935.192 1.055.761-.033.36-.229.506-.586.44-.582-.254-.738-.655-.468-1.201Z" fill="#F6F9F9"/><path fill-rule="evenodd" clip-rule="evenodd" d="M9.932 8.115h1.289a1.952 1.952 0 0 1-.82 1.436 7.891 7.891 0 0 1-4.16 1.025v-1.23a6.661 6.661 0 0 0 3.28-.733.744.744 0 0 0 .41-.498Z" fill="#283A41"/><path fill-rule="evenodd" clip-rule="evenodd" d="M18.72 8.115h1.29a.486.486 0 0 0 .234.381 6.158 6.158 0 0 0 3.457.85v1.23a7.859 7.859 0 0 1-3.281-.556 3.049 3.049 0 0 1-1.553-1.26 3.82 3.82 0 0 1-.146-.645Z" fill="#293A41"/><path fill-rule="evenodd" clip-rule="evenodd" d="M7.998 10.635c1.803-.217 3.043.505 3.72 2.168.348 1.576-.15 2.796-1.493 3.662-1.513.69-2.831.427-3.956-.791-1.022-1.577-.876-3.032.44-4.365.4-.286.83-.511 1.289-.674Z" fill="#293A40"/><path fill-rule="evenodd" clip-rule="evenodd" d="M20.83 10.576c1.849-.015 3.011.864 3.486 2.637.104 1.972-.804 3.173-2.724 3.603-1.291.112-2.297-.367-3.018-1.435-.864-1.708-.542-3.143.967-4.307.417-.22.847-.386 1.29-.498Z" fill="#2A3A41"/><path fill-rule="evenodd" clip-rule="evenodd" d="M8.232 11.22c1.5-.09 2.487.574 2.96 1.993.057 2.071-.949 3.057-3.018 2.959-1.457-.48-2.092-1.487-1.904-3.018.3-1.013.954-1.657 1.962-1.933ZM20.713 11.22c2.07-.028 3.057.987 2.959 3.048-.48 1.456-1.487 2.09-3.018 1.904-1.408-.482-2.043-1.468-1.904-2.96.314-1.006.968-1.67 1.963-1.991Z" fill="#151F22"/><path fill-rule="evenodd" clip-rule="evenodd" d="M7.47 11.865c.88-.087 1.28.304 1.202 1.172-.278.632-.737.817-1.377.557-.664-.653-.606-1.23.176-1.729ZM21.826 11.865c.947-.059 1.348.37 1.201 1.29-.285.511-.705.677-1.26.497-.54-.365-.666-.843-.38-1.435a7.4 7.4 0 0 1 .44-.352ZM9.346 13.74c.88-.087 1.28.304 1.2 1.172-.277.632-.736.817-1.376.557-.664-.653-.606-1.23.176-1.729ZM19.951 13.74c.947-.059 1.348.37 1.201 1.29-.285.511-.705.677-1.26.497-.54-.365-.666-.843-.38-1.435a7.4 7.4 0 0 1 .44-.352Z" fill="#F1F5F8"/><path fill-rule="evenodd" clip-rule="evenodd" d="M.006 15.75c.173.11.377.149.612.116.06 2.246.764 4.292 2.111 6.139 2.004 2.528 4.626 4.217 7.865 5.067 3.349.835 6.654.709 9.914-.376-.822-.595-1.087-1.348-.796-2.259.462 1.103 1.299 1.499 2.51 1.188.528-.24.895-.616 1.101-1.13.088.022.139.08.153.174.011.215.042.427.092.637 3.624-2.205 5.562-5.352 5.814-9.44a.878.878 0 0 0 .612-.116c.14 5.633-2.287 9.967-7.283 13.002-5.14 2.664-10.281 2.664-15.422 0C2.293 25.717-.134 21.383.006 15.75Z" fill="#F4C534"/><path fill-rule="evenodd" clip-rule="evenodd" d="M7.647 14.326c.341-.02.488.136.439.469-.195.234-.39.234-.586 0-.058-.192-.009-.348.147-.469Z" fill="#E4E9EC"/><path fill-rule="evenodd" clip-rule="evenodd" d="M22.06 14.326c.438.069.516.274.235.615-.313.058-.46-.069-.44-.38a.41.41 0 0 1 .206-.235Z" fill="#E5E9EC"/><path fill-rule="evenodd" clip-rule="evenodd" d="M22.646 22.037c.131.527.141 1.054.03 1.582-.54.948-1.31 1.192-2.315.733-.575-.487-.829-1.103-.761-1.846.294-.94.714-1.82 1.26-2.637.1-.12.217-.218.35-.293.154.095.291.212.411.352.452.65.794 1.352 1.026 2.11Z" fill="#3DC4F4"/><path fill-rule="evenodd" clip-rule="evenodd" d="M14.62 19.951c1.3-.048 2.208.518 2.724 1.7.063.25.092.503.088.761a9.258 9.258 0 0 0-2.49-.586 7.155 7.155 0 0 0-2.432.586c.093-1.343.796-2.163 2.11-2.46Z" fill="#293A41"/><path fill-rule="evenodd" clip-rule="evenodd" d="M22.12 21.346c.389.046.525.251.41.615-.456-.004-.593-.21-.41-.615Z" fill="#EEF7FC"/><path fill-rule="evenodd" clip-rule="evenodd" d="M22.646 22.037c.218.44.365.908.44 1.406.069.39.02.762-.146 1.114-.198.52-.55.9-1.055 1.142-1.16.315-1.96-.085-2.403-1.201a1.688 1.688 0 0 1-.175-.703c.042-.444.14-.874.293-1.29-.068.744.186 1.36.761 1.847 1.004.46 1.776.215 2.315-.733a3.491 3.491 0 0 0-.03-1.582Z" fill="#13A4DF"/><path fill-rule="evenodd" clip-rule="evenodd" d="M21.475 21.99c.53.012.862.275.996.791-.07.358-.286.495-.645.41-.454-.196-.64-.538-.556-1.025.067-.067.135-.125.205-.176Z" fill="#F3F9FC"/></g><defs><clipPath id="aa"><rect width="30" height="30" rx="15" fill="#fff"/></clipPath></defs></svg><svg fill="none" viewBox="0 0 30 30" id="emoji-laughing-out-loud" xmlns="http://www.w3.org/2000/svg"><g clip-path="url(#ba)" fill-rule="evenodd" clip-rule="evenodd"><path opacity=".995" d="M13.682-.03h2.578c5.877.732 10.066 3.779 12.568 9.141.604 1.476.984 3 1.143 4.57v2.579c-.732 5.877-3.779 10.066-9.14 12.568-1.477.604-3 .984-4.571 1.143h-2.578c-5.878-.732-10.067-3.779-12.569-9.14-.603-1.477-.984-3-1.142-4.571v-2.578C.702 7.804 3.749 3.615 9.11 1.113c1.476-.603 3-.984 4.57-1.142Z" fill="#FED83C"/><path opacity=".997" d="M13.682-.03h2.578c5.877.732 10.066 3.779 12.568 9.141.604 1.476.984 3 1.143 4.57v2.579c-.305 3.069-1.418 5.803-3.34 8.203-3.645 2.793-7.747 3.818-12.305 3.076-4.955-1.105-8.559-3.927-10.81-8.467-2.006-4.663-1.81-9.233.586-13.71.43-.708.89-1.391 1.377-2.051 2.4-1.922 5.134-3.036 8.203-3.34Z" fill="#FED83D"/><path d="M9.58 9.228c.641-.163 1.12.052 1.436.645.065.474.095.953.088 1.436 0 .43-.02.85-.06 1.26.01-.12 0-.237-.028-.352-.532.517-.981.458-1.348-.176a66.99 66.99 0 0 0-.088-2.813Z" fill="#6E4D40"/><path d="M19.775 9.229c.678-.145 1.157.11 1.436.761.064.436.093.876.088 1.319 0 .371-.02.733-.059 1.084.01-.1 0-.198-.03-.293-.28.487-.661.585-1.142.293a1.522 1.522 0 0 1-.205-.293c-.01-.967-.039-1.925-.088-2.871Z" fill="#846153"/><path d="M9.58 9.229c.049.927.078 1.864.088 2.812.367.634.816.693 1.348.176.029.115.038.233.029.351-.078.479-.351.781-.82.909-.664.16-1.142-.064-1.436-.674A17.497 17.497 0 0 1 8.73 9.99c.148-.411.431-.665.85-.761Z" fill="#6E4D40"/><path d="M19.775 9.229c.05.947.078 1.904.088 2.87.057.106.126.204.205.294.48.292.862.194 1.143-.293a.758.758 0 0 1 .03.293c-.164.882-.691 1.244-1.583 1.084a1.141 1.141 0 0 1-.732-.733 15.43 15.43 0 0 1-.059-2.637c.142-.464.445-.757.908-.878Z" fill="#846153"/><path d="M7.822 17.139c.223.807.633 1.5 1.23 2.08a4.36 4.36 0 0 0 1.817.41c2.676.194 5.352.194 8.027 0a15.41 15.41 0 0 0 1.582-.235c.37-.134.672-.358.909-.673a7.265 7.265 0 0 0 .732-1.582c.418-.14.848-.209 1.29-.205a.61.61 0 0 1 .292.468 9.17 9.17 0 0 1-1.465 3.135l-3.457.498a41.242 41.242 0 0 1-11.074-.498 9.169 9.169 0 0 1-1.465-3.135c.019-.303.175-.469.469-.498.374.072.745.15 1.113.235Z" fill="#6E4D40"/><path d="M7.822 17.139c4.765.934 9.53.934 14.297 0a7.265 7.265 0 0 1-.732 1.582c-.237.315-.54.54-.909.674a15.41 15.41 0 0 1-1.582.234 55.518 55.518 0 0 1-8.027 0 4.358 4.358 0 0 1-1.816-.41 4.522 4.522 0 0 1-1.23-2.08Z" fill="#FDFDFC"/><path d="M7.705 20.537c3.666.664 7.358.83 11.074.498l3.457-.498c-1.724 2.636-4.175 4.003-7.353 4.102-3.103-.15-5.496-1.517-7.178-4.102Z" fill="#9C6846"/><path d="M24.404 3.31c3.282 2.676 5.137 6.133 5.567 10.372v2.578c-.732 5.877-3.779 10.066-9.14 12.568-1.477.604-3 .984-4.571 1.143h-2.578c-4.239-.43-7.696-2.285-10.371-5.567 3.448 2.685 7.354 3.73 11.718 3.135 5.645-1.079 9.561-4.272 11.748-9.58 1.773-5.318.982-10.2-2.373-14.648Z" fill="#F4C534"/></g><defs><clipPath id="ba"><rect width="30" height="30" rx="15" fill="#fff"/></clipPath></defs></svg><svg fill="none" viewBox="0 0 30 30" id="emoji-mind" xmlns="http://www.w3.org/2000/svg"><g clip-path="url(#ca)" fill-rule="evenodd" clip-rule="evenodd"><path opacity=".997" d="M13.682-.03h2.578c2.367.233 4.574.966 6.62 2.198.544.34 1.052.72 1.524 1.143 3.355 4.447 4.146 9.33 2.373 14.648-2.187 5.308-6.103 8.502-11.748 9.58-4.364.595-8.27-.45-11.718-3.135a14.013 14.013 0 0 1-2.842-5.449A21.719 21.719 0 0 1-.03 16.26v-2.578C.702 7.804 3.749 3.615 9.11 1.113c1.476-.603 3-.984 4.57-1.142Z" fill="#FED83B"/><path d="M24.404 3.31c3.282 2.676 5.137 6.133 5.567 10.372v2.578c-.732 5.877-3.779 10.066-9.14 12.568-1.477.604-3 .984-4.571 1.143h-2.578c-4.239-.43-7.696-2.285-10.371-5.567 3.448 2.685 7.354 3.73 11.718 3.135 5.645-1.079 9.561-4.272 11.748-9.58 1.773-5.318.982-10.2-2.373-14.648Z" fill="#F4C534"/><path d="M10.459 14.56a12.66 12.66 0 0 1-4.072-3.105c-.609-.94-.58-1.858.087-2.754.948-.34 1.758-.124 2.432.645.66-1.43 1.706-1.81 3.135-1.143.969.76 1.194 1.708.674 2.842a12.33 12.33 0 0 1-2.256 3.515ZM23.232 8.76c-.025-.004-.045.006-.058.03.615.877.625 1.766.03 2.665a12.642 12.642 0 0 1-4.073 3.105 10.402 10.402 0 0 1-2.432-4.101c-.209-1.096.172-1.906 1.143-2.432 1.338-.39 2.285.05 2.842 1.319.718-.823 1.567-1.019 2.548-.586Z" fill="#E24B4A"/><path d="M6.475 8.701c-.668.896-.697 1.814-.088 2.754a12.66 12.66 0 0 0 4.072 3.105c-.073.143-.161.28-.264.41a.64.64 0 0 1-.263.176 13.62 13.62 0 0 1-4.248-3.164c-.781-1.181-.635-2.226.439-3.134.112-.066.229-.115.352-.147Z" fill="#D1413F"/><path d="M11.162 8.76c.372-.03.635.127.791.469.087.268.106.541.059.82-.175.246-.4.295-.674.146-.37-.321-.498-.722-.381-1.2a.41.41 0 0 1 .205-.235ZM18.018 8.76c.457-.085.672.1.644.556.002.517-.243.84-.732.967a.487.487 0 0 1-.293-.117c-.211-.565-.084-1.034.38-1.406Z" fill="#E76E6E"/><path d="M23.232 8.76c.89.47 1.27 1.212 1.143 2.226a4.634 4.634 0 0 1-1.436 2.022 21.592 21.592 0 0 1-3.164 2.11.314.314 0 0 1-.293-.06 4.084 4.084 0 0 1-.351-.497 12.644 12.644 0 0 0 4.072-3.106c.596-.9.586-1.788-.03-2.666.014-.023.034-.033.06-.03Z" fill="#D0413F"/><path d="M18.486 24.756a3.49 3.49 0 0 0-1.582-1.846 2.538 2.538 0 0 0-.644-.088c-.544.097-1.09.175-1.64.235a9.2 9.2 0 0 1-1.114-.176 2.07 2.07 0 0 0-1.494.879c-.218.318-.404.65-.557.996a8.053 8.053 0 0 1-3.78-3.34 4.905 4.905 0 0 1-.76-2.988c.114-.283.33-.42.644-.41.289.065.572.152.85.263a35.336 35.336 0 0 0 3.925 1.758c2.29.65 4.518.474 6.68-.527a82.38 82.38 0 0 0 2.636-1.29c.245-.073.489-.14.733-.205.541.055.766.357.674.909-.1 1.16-.5 2.204-1.201 3.135a8.39 8.39 0 0 1-3.37 2.695Z" fill="#3E4346"/><path d="M18.486 24.756a8.169 8.169 0 0 1-3.603.762 8.77 8.77 0 0 1-2.9-.498 1.759 1.759 0 0 1-.528-.264 6.28 6.28 0 0 1 .557-.996c.37-.513.868-.806 1.494-.88.367.082.738.14 1.113.177.55-.06 1.097-.138 1.64-.235.22.002.434.031.645.088a3.49 3.49 0 0 1 1.582 1.846Z" fill="#E04B4A"/></g><defs><clipPath id="ca"><rect width="30" height="30" rx="15" fill="#fff"/></clipPath></defs></svg><svg fill="none" viewBox="0 0 30 30" id="emoji-skim" xmlns="http://www.w3.org/2000/svg"><g clip-path="url(#da)" fill-rule="evenodd" clip-rule="evenodd"><path opacity=".997" d="M13.682-.03h2.578c2.367.233 4.574.966 6.62 2.198.544.34 1.052.72 1.524 1.143 3.355 4.447 4.146 9.33 2.373 14.648-2.187 5.308-6.103 8.502-11.748 9.58-4.364.595-8.27-.45-11.718-3.135a14.013 14.013 0 0 1-2.842-5.449A21.719 21.719 0 0 1-.03 16.26v-2.578C.702 7.804 3.749 3.615 9.11 1.113c1.476-.603 3-.984 4.57-1.142Z" fill="#FED83B"/><path d="M24.404 3.31c3.282 2.676 5.137 6.133 5.567 10.372v2.578c-.732 5.877-3.779 10.066-9.14 12.568-1.477.604-3 .984-4.571 1.143h-2.578c-4.239-.43-7.696-2.285-10.371-5.567 3.448 2.685 7.354 3.73 11.718 3.135 5.645-1.079 9.561-4.272 11.748-9.58 1.773-5.318.982-10.2-2.373-14.648Z" fill="#F4C534"/><path d="M8.994 10.107c1.992-.069 2.958.888 2.9 2.872-.455 1.45-1.442 2.065-2.958 1.845-1.548-.604-2.085-1.707-1.612-3.31a2.833 2.833 0 0 1 1.67-1.407ZM19.893 10.107c1.41-.138 2.358.448 2.841 1.758.209 1.072-.113 1.942-.966 2.608-1.214.69-2.298.525-3.252-.498-.821-1.328-.635-2.49.556-3.487a7.66 7.66 0 0 1 .82-.38Z" fill="#6E4D40"/><path d="M10.225 11.162c.546.009.79.282.732.82-.304.25-.577.21-.82-.117-.142-.262-.113-.497.088-.703Z" fill="#595E62"/><path d="M21.123 11.162c.618.038.833.34.645.908-.476.123-.768-.062-.88-.556.055-.133.133-.25.235-.352ZM16.494 19.13a42.626 42.626 0 0 1 3.809.089c.519.326.646.766.38 1.318a1.356 1.356 0 0 1-.556.44c-1.446.009-2.892.048-4.336.117a7.259 7.259 0 0 0-3.34 1.054 5.28 5.28 0 0 0-1.26 1.377c-.526.42-1.014.38-1.464-.117a1.04 1.04 0 0 1 0-1.055c1.213-1.745 2.883-2.75 5.01-3.017l1.757-.205Z" fill="#6E4D40"/></g><defs><clipPath id="da"><rect width="30" height="30" rx="15" fill="#fff"/></clipPath></defs></svg><svg fill="none" viewBox="0 0 30 30" id="emoji-smile" xmlns="http://www.w3.org/2000/svg"><g clip-path="url(#ea)" fill-rule="evenodd" clip-rule="evenodd"><path opacity=".995" d="M13.682-.03h2.578c5.877.732 10.066 3.779 12.568 9.141.604 1.476.984 3 1.143 4.57v2.579c-.732 5.877-3.779 10.066-9.14 12.568-1.477.604-3 .984-4.571 1.143h-2.578c-5.878-.732-10.067-3.779-12.569-9.14-.603-1.477-.984-3-1.142-4.571v-2.578C.702 7.804 3.749 3.615 9.11 1.113c1.476-.603 3-.984 4.57-1.142Z" fill="#FED83C"/><path d="M24.404 3.31c3.282 2.676 5.137 6.133 5.567 10.372v2.578c-.732 5.877-3.779 10.066-9.14 12.568-1.477.604-3 .984-4.571 1.143h-2.578c-4.239-.43-7.696-2.285-10.371-5.567 3.448 2.685 7.354 3.73 11.718 3.135 5.645-1.079 9.561-4.272 11.748-9.58 1.773-5.318.982-10.2-2.373-14.648Z" fill="#F4C534"/><path d="M8.936 9.346c1.132-.093 1.884.395 2.255 1.465.069 1.572-.683 2.324-2.255 2.255-1.078-.367-1.557-1.12-1.436-2.255.235-.734.714-1.222 1.436-1.465ZM20.186 9.346c1.132-.093 1.884.395 2.255 1.465.069 1.572-.683 2.324-2.255 2.255-1.078-.367-1.557-1.12-1.436-2.255.235-.734.714-1.222 1.436-1.465Z" fill="#6E4D40"/><path d="M8.701 20.01c.288-.026.561.023.82.146 2.423 2.236 5.196 2.803 8.32 1.7a9.925 9.925 0 0 0 1.29-.645l1.523-1.172c.706-.114 1.116.179 1.23.879a1.202 1.202 0 0 1-.263.674c-2.68 2.464-5.795 3.255-9.346 2.373a10.767 10.767 0 0 1-3.867-2.285c-.536-.672-.438-1.229.293-1.67Z" fill="#6D4C40"/></g><defs><clipPath id="ea"><rect width="30" height="30" rx="15" fill="#fff"/></clipPath></defs></svg><svg fill="none" viewBox="0 0 300 49" id="icon-feed-bg" xmlns="http://www.w3.org/2000/svg"><path d="m290.944 15.098 2.822-1.583c.069-.087.069-.175 0-.175l-2.822-1.582-1.309-3.692c0-.088-.069-.088-.069 0l-1.308 3.604-2.823 1.67c-.069 0-.069.088 0 .175l2.823 1.583 1.308 3.603h.069l1.309-3.603Z" fill="#6ADBC6"/><path d="m274.316 43.862 3.976-2.225a.231.231 0 0 0 .039-.131.231.231 0 0 0-.039-.131l-3.976-2.225-1.783-5.106a.129.129 0 0 0-.035-.032.085.085 0 0 0-.042-.012.091.091 0 0 0-.043.012.126.126 0 0 0-.034.032l-1.784 5.04-3.976 2.29a.231.231 0 0 0-.039.132c0 .048.014.095.039.13l3.976 2.226 1.784 5.04c.068.13.119.13.154 0l1.783-5.04Z" fill="#628BF7"/><path opacity=".5" d="m150.829 6.4 2.663-1.5v-.2l-2.663-1.4-1.175-3.3h-.157l-1.175 3.3-2.586 1.4c-.078.1-.078.2 0 .2l2.586 1.5 1.175 3.4h.157l1.175-3.4Z" fill="#9691FF"/><path d="M24.968 34.15 31 30.75a.142.142 0 0 0 .111-.059.23.23 0 0 0 .046-.141.23.23 0 0 0-.046-.141.142.142 0 0 0-.11-.059l-6.033-3.4a.07.07 0 0 1-.055-.03.115.115 0 0 1-.023-.07l-2.742-7.7c0-.2-.157-.2-.235 0l-2.664 7.7h-.078l-6.111 3.5a.351.351 0 0 0-.06.2c0 .074.021.145.06.2l6.11 3.4h.079l2.664 7.8c.078.2.235.2.235 0l2.742-7.7c0-.026.008-.052.023-.07a.07.07 0 0 1 .055-.03Z" fill="#FF7ABC"/></svg><svg fill="none" viewBox="0 0 12 12" id="icon-feed-link" xmlns="http://www.w3.org/2000/svg"><g clip-path="url(#ga)"><path fill-rule="evenodd" clip-rule="evenodd" d="M.75 2.511c0-.97.791-1.761 1.761-1.761h1.745a.598.598 0 0 1 0 1.196H2.51a.568.568 0 0 0-.565.565V9.49c0 .31.256.565.565.565H9.49c.31 0 .565-.256.565-.565V7.744a.598.598 0 0 1 1.196 0V9.49c0 .97-.791 1.761-1.761 1.761H2.51c-.97 0-1.761-.791-1.761-1.761V2.51Zm5.815-1.163c0-.33.268-.598.598-.598h2.907c.65 0 1.18.53 1.18 1.18v2.907a.598.598 0 0 1-1.196 0v-1.94L6.557 6.394a.598.598 0 0 1-.846-.846l3.602-3.602h-2.15a.598.598 0 0 1-.598-.598Z" fill="#fff"/></g><defs><clipPath id="ga"><path fill="#fff" d="M0 0h12v12H0z"/></clipPath></defs></svg><svg fill="none" viewBox="0 0 24 24" id="icon-green-download" xmlns="http://www.w3.org/2000/svg"><path fill-rule="evenodd" clip-rule="evenodd" d="M7.002 6.668a.74.74 0 0 0-1.1 0L4.804 7.851a.882.882 0 0 0 0 1.183l6.195 6.665c.027.029.52.346 1.01.346.485 0 .967-.318.994-.346l6.194-6.665a.882.882 0 0 0 0-1.183l-1.099-1.183a.739.739 0 0 0-1.099 0L13.5 10.432V2.307c0-.445-.336-.807-.75-.807h-1.5c-.414 0-.75.362-.75.807v8.125L7.002 6.668ZM4.5 22.5h15c1.657 0 3-1.445 3-3.228v-4.034c0-.446-.336-.807-.75-.807h-1.5c-.414 0-.75.36-.75.807v2.42c0 .892-.672 1.614-1.5 1.614H6c-.829 0-1.5-.722-1.5-1.614v-2.42c0-.446-.336-.807-.75-.807h-1.5c-.414 0-.75.36-.75.807v4.034c0 1.783 1.343 3.228 3 3.228Z" fill="#24CD77"/></svg><svg fill="none" viewBox="0 0 12 12" id="icon-offical" xmlns="http://www.w3.org/2000/svg"><path fill-rule="evenodd" clip-rule="evenodd" d="M8.83 8.732c.591-.645.92-1.47.92-2.328V2.753L6 1.504 2.25 2.753v3.65c0 .858.33 1.683.92 2.328.28.305.651.56 1.085.783l1.748.894 1.745-.894c.433-.221.804-.478 1.083-.782Zm-.74 1.45L6.004 11.25l-2.09-1.069c-.483-.246-.937-.55-1.296-.943A4.195 4.195 0 0 1 1.5 6.402V2.641c0-.258.171-.487.428-.572L5.788.784a.673.673 0 0 1 .424 0l3.86 1.285a.608.608 0 0 1 .428.572v3.763a4.194 4.194 0 0 1-1.116 2.834c-.359.392-.812.697-1.294.944Z" fill="#9C7D3E"/><path fill-rule="evenodd" clip-rule="evenodd" d="M8.138 4.24a.4.4 0 0 1 0 .555l-2.516 2.59a.373.373 0 0 1-.539 0L3.862 6.127a.4.4 0 0 1 0-.555.373.373 0 0 1 .538 0l.953.98L7.6 4.24a.373.373 0 0 1 .538 0Z" fill="#9C7D3E"/></svg><svg fill="none" viewBox="0 0 357 181" id="icon-ranking-header-left" xmlns="http://www.w3.org/2000/svg"><path d="M205.334 105.923c-99.671-31.894-98.3 132.779-213.564 52.354s-68.366-426.036 184.61-366.626c252.977 59.411 218.199 374.836 28.954 314.272Z" fill="#fff" fill-opacity=".1"/></svg><svg fill="none" viewBox="0 0 600 500" id="icon-ranking-header-right" xmlns="http://www.w3.org/2000/svg"><g clip-path="url(#ka)"><path d="M252.125 386.664c-74.367-23.797-73.344 99.07-159.346 39.063-86.002-60.007-51.01-317.879 137.743-273.551 188.753 44.328 162.805 279.677 21.603 234.488Z" fill="#fff" fill-opacity=".1"/><path d="M443.919 196.669C341.697 174.258 425.493 32.493 285.436 44.242 145.38 55.992 12.569 378.494 261.214 454.01c248.644 75.514 376.797-214.795 182.705-257.34Z" fill="#fff" fill-opacity=".2"/><path d="m304 0 234.259 82.67L450.5 196.34 304 151.765V0Z" fill="url(#kb)" style="mix-blend-mode:soft-light" opacity=".68"/><path fill="#3A86F8" d="m326.707 307.2 24.993 7.167-11.944 41.654-24.993-7.167z"/><path fill-rule="evenodd" clip-rule="evenodd" d="M262.288 176.751c4.043-2.167 9.076-2.627 13.831-1.264l188.279 53.988c4.695 1.346 8.68 4.344 10.975 8.256 2.296 3.912 2.689 8.375 1.084 12.291l-16.194-6.126-188.279-53.988-17.029-3.074c.622-4.246 3.29-7.915 7.333-10.083Zm8.746 28.491c.076-9.358.95-15.334.95-15.334-17.029-3.074-17.03-3.069-17.03-3.062l-.002.014-.006.035-.013.098-.041.302c-.033.248-.076.588-.126 1.016-.101.855-.229 2.062-.357 3.576-.257 3.024-.514 7.3-.545 12.479-.059 10.294.777 24.483 4.497 39.67 7.384 30.146 27.285 67.619 77.7 82.075 50.534 14.49 86.735-7.033 108.418-28.948 10.907-11.025 18.832-22.726 24.007-31.561a157.572 157.572 0 0 0 5.872-10.965 109.434 109.434 0 0 0 1.51-3.248c.175-.393.311-.708.409-.937l.118-.281.038-.091.014-.033.005-.013c.002-.006.005-.012-16.189-6.138 0 0-2.284 5.572-6.967 13.609-14.289 24.528-50.912 72.017-113.1 54.185-62.187-17.832-69.393-77.889-69.162-106.448Z" fill="#3A86F8"/><rect x="287.516" y="333.829" width="86.667" height="22.533" rx="11.267" transform="rotate(16 287.516 333.829)" fill="#3A86F8"/><rect x="304.177" y="338.607" width="69.333" height="22.533" rx="11.267" transform="rotate(16 304.177 338.607)" fill="#3AA0F8"/><rect x="268.808" y="351.906" width="112.667" height="22.533" rx="11.267" transform="rotate(16 268.808 351.906)" fill="#3A86F8"/><rect x="285.47" y="356.684" width="95.333" height="22.533" rx="11.267" transform="rotate(16 285.47 356.684)" fill="#3AA0F8"/><rect x="295.923" y="131.578" width="182" height="26" rx="13" transform="rotate(16 295.923 131.578)" fill="#3A86F8"/><rect x="330.079" y="141.372" width="146.467" height="26" rx="13" transform="rotate(16 330.079 141.372)" fill="#3AA0F8"/><path d="m301.252 160.154 149.957 43-19.827 69.146c-11.874 41.41-55.069 65.353-96.478 53.479-41.41-11.874-65.353-55.069-53.479-96.478l19.827-69.147Z" fill="#3A86F8"/><mask id="kc" style="mask-type:alpha" maskUnits="userSpaceOnUse" x="278" y="160" width="174" height="169"><path d="m301.252 160.154 149.957 43-19.827 69.146c-11.874 41.41-55.069 65.353-96.478 53.479-41.41-11.874-65.353-55.069-53.479-96.478l19.827-69.147Z" fill="#FF7010"/></mask><g mask="url(#kc)"><path d="m328.261 176.013 124.964 35.833-21.261 74.145c-9.895 34.508-45.891 54.461-80.399 44.566-34.507-9.895-54.46-45.891-44.565-80.399l21.261-74.145Z" fill="#3AA0F8"/><path d="M370.115 236.663c.357 2.459 1.818 4.515 3.955 5.487l12.467 5.811c2.647 1.238 2.695 5.285.052 6.843l-12.362 7.356c-2.076 1.241-3.519 3.463-3.834 5.968l-1.841 14.845c-.394 3.161-3.959 4.615-6.016 2.468l-9.78-10.072a6.446 6.446 0 0 0-6.293-1.804l-13.631 3.358c-2.883.731-5.126-2.428-3.795-5.281l6.306-13.564c1.06-2.292 1.048-4.931-.09-7.094l-6.584-12.789c-1.383-2.712.769-6.128 3.67-5.775l13.651 1.678c2.294.299 4.623-.671 6.262-2.557l9.556-11.235c2.034-2.371 5.621-1.343 6.056 1.736l2.251 14.621Z" fill="#fff"/></g><mask id="kd" style="mask-type:alpha" maskUnits="userSpaceOnUse" x="345" y="192" width="146" height="176"><path transform="rotate(16 386.577 192.735)" fill="#D9D9D9" d="M386.577 192.735H494.91v150.8H386.577z"/></mask><g mask="url(#kd)"><path fill-rule="evenodd" clip-rule="evenodd" d="M262.288 176.751c4.043-2.167 9.076-2.627 13.831-1.264l188.279 53.988c4.695 1.346 8.68 4.344 10.975 8.256 2.296 3.912 2.689 8.375 1.084 12.291l-16.194-6.126-188.279-53.988-17.029-3.074c.622-4.246 3.29-7.915 7.333-10.083Zm8.746 28.491c.076-9.358.95-15.334.95-15.334-17.029-3.074-17.03-3.069-17.03-3.063l-.002.015-.006.035-.013.098-.041.302c-.033.248-.076.588-.126 1.016-.101.855-.229 2.062-.357 3.576-.257 3.024-.514 7.3-.545 12.479-.059 10.294.777 24.483 4.497 39.67 7.384 30.146 27.285 67.619 77.7 82.075 50.534 14.49 86.735-7.033 108.418-28.948 10.907-11.025 18.832-22.726 24.007-31.561a157.572 157.572 0 0 0 5.872-10.965 109.434 109.434 0 0 0 1.51-3.248c.175-.393.311-.708.409-.937l.118-.281.038-.091.014-.033.005-.013c.002-.006.005-.012-16.189-6.138 0 0-2.284 5.572-6.967 13.609-14.289 24.528-50.912 72.017-113.1 54.185-62.187-17.832-69.393-77.889-69.162-106.448Z" fill="#3AA0F8"/></g><path opacity=".9" d="m540.059 158.244 6.629-3.844c.162-.213.162-.427 0-.427l-6.629-3.844-3.072-8.969c0-.213-.162-.213-.162 0l-3.073 8.756-6.631 4.057c-.161 0-.161.214 0 .427l6.631 3.844 3.073 8.756h.162l3.072-8.756Z" fill="#fff"/><path d="m475.142 221.067 7.781-4.303a.44.44 0 0 0 .077-.253.445.445 0 0 0-.077-.253l-7.781-4.302-3.492-9.87a.252.252 0 0 0-.067-.064.178.178 0 0 0-.083-.022.178.178 0 0 0-.083.022.252.252 0 0 0-.067.064l-3.492 9.743-7.781 4.429a.445.445 0 0 0-.077.253.44.44 0 0 0 .077.253l7.781 4.303 3.492 9.743c.133.253.233.253.3 0l3.492-9.743ZM335.489 110.673l6.458-3.673v-.49l-6.458-3.428L332.64 95h-.38l-2.849 8.082-6.269 3.428c-.189.245-.189.49 0 .49l6.269 3.673L332.26 119h.38l2.849-8.327Z" fill="#fff"/></g><defs><linearGradient id="kb" x1="415.917" y1="41.335" x2="371.342" y2="173.267" gradientUnits="userSpaceOnUse"><stop stop-color="#fff" stop-opacity="0"/><stop offset="1" stop-color="#fff"/></linearGradient><clipPath id="ka"><path fill="#fff" d="M0 0h600v500H0z"/></clipPath></defs></svg><svg fill="none" viewBox="0 0 312 194" id="icon-ranking-top-up-header-right" xmlns="http://www.w3.org/2000/svg"><g clip-path="url(#la)"><path d="M131.105 201.065c-38.67-12.374-38.139 51.517-82.86 20.313C3.525 190.174 21.72 56.081 119.872 79.132c98.151 23.05 84.658 145.431 11.233 121.933Z" fill="#fff" fill-opacity=".1"/><path d="M230.838 102.268c-53.155-11.654-9.581-85.372-82.411-79.262-72.829 6.11-141.89 173.811-12.595 213.079 129.295 39.267 195.934-111.694 95.006-133.817Z" fill="#fff" fill-opacity=".2"/><path d="m158.08 0 121.815 42.989-45.635 59.108-76.18-23.18V0Z" fill="url(#lb)" style="mix-blend-mode:soft-light" opacity=".68"/><path fill="#5C37D5" d="m169.887 159.744 12.996 3.727-6.21 21.66-12.997-3.727z"/><path fill-rule="evenodd" clip-rule="evenodd" d="M136.388 91.91c2.102-1.126 4.719-1.366 7.192-.657l97.905 28.074c2.441.7 4.514 2.259 5.707 4.293 1.194 2.034 1.399 4.355.564 6.392l-8.421-3.186-97.905-28.074-8.855-1.599c.323-2.208 1.71-4.115 3.813-5.242Zm4.548 14.816c.039-4.866.494-7.974.494-7.974-8.855-1.599-8.855-1.596-8.856-1.592l-.001.007-.003.019-.007.05-.021.157a57.133 57.133 0 0 0-.251 2.388 82.502 82.502 0 0 0-.283 6.489c-.031 5.353.404 12.732 2.338 20.629 3.84 15.676 14.188 35.161 40.404 42.679 26.278 7.535 45.102-3.657 56.377-15.053 5.672-5.733 9.793-11.818 12.484-16.412a81.819 81.819 0 0 0 3.053-5.701c.343-.71.604-1.282.786-1.69a50.439 50.439 0 0 0 .274-.633l.019-.047.007-.018.003-.006c.001-.003.003-.006-8.418-3.192 0 0-1.188 2.897-3.623 7.077-7.43 12.754-26.474 37.449-58.812 28.176-32.337-9.273-36.084-40.503-35.964-55.353Z" fill="#5C37D5"/><rect x="149.508" y="173.591" width="45.067" height="11.717" rx="5.859" transform="rotate(16 149.508 173.591)" fill="#5C37D5"/><rect x="158.172" y="176.076" width="36.053" height="11.717" rx="5.859" transform="rotate(16 158.172 176.076)" fill="#7E37DE"/><rect x="139.779" y="182.991" width="58.587" height="11.717" rx="5.859" transform="rotate(16 139.779 182.991)" fill="#5C37D5"/><rect x="148.443" y="185.476" width="49.573" height="11.717" rx="5.859" transform="rotate(16 148.443 185.476)" fill="#7E37DE"/><rect x="153.879" y="68.421" width="94.64" height="13.52" rx="6.76" transform="rotate(16 153.879 68.42)" fill="#5C37D5"/><rect x="171.641" y="73.514" width="76.163" height="13.52" rx="6.76" transform="rotate(16 171.641 73.514)" fill="#7E37DE"/><path d="m156.65 83.28 77.978 22.36-10.31 35.956c-6.175 21.533-28.636 33.984-50.169 27.809-21.533-6.174-33.983-28.636-27.809-50.168l10.31-35.957Z" fill="#5C37D5"/><mask id="lc" style="mask-type:alpha" maskUnits="userSpaceOnUse" x="144" y="83" width="91" height="88"><path d="m156.65 83.28 77.978 22.36-10.31 35.956c-6.175 21.533-28.636 33.984-50.169 27.809-21.533-6.174-33.983-28.636-27.809-50.168l10.31-35.957Z" fill="#FF7010"/></mask><g mask="url(#lc)"><path d="m170.695 91.527 64.982 18.633-11.056 38.555c-5.145 17.945-23.863 28.32-41.807 23.175-17.944-5.146-28.32-23.864-23.174-41.808l11.055-38.555Z" fill="#7E37DE"/><path d="M192.458 123.065c.186 1.278.945 2.347 2.057 2.853l6.483 3.022c1.376.643 1.401 2.748.027 3.558l-6.428 3.825c-1.08.646-1.83 1.801-1.994 3.103l-.957 7.72c-.205 1.644-2.059 2.4-3.129 1.283l-5.086-5.237a3.349 3.349 0 0 0-3.272-.938L173.071 144c-1.499.38-2.665-1.263-1.973-2.746l3.279-7.054c.551-1.191.545-2.563-.047-3.688l-3.424-6.65c-.719-1.411.4-3.187 1.909-3.004l7.098.873c1.193.155 2.404-.349 3.256-1.33l4.969-5.842c1.059-1.233 2.923-.698 3.15.903l1.17 7.603Z" fill="#fff"/></g><mask id="ld" style="mask-type:alpha" maskUnits="userSpaceOnUse" x="179" y="100" width="77" height="92"><path transform="rotate(16 201.02 100.222)" fill="#D9D9D9" d="M201.02 100.222h56.333v78.416H201.02z"/></mask><g mask="url(#ld)"><path fill-rule="evenodd" clip-rule="evenodd" d="M136.388 91.91c2.102-1.126 4.719-1.366 7.192-.657l97.905 28.074c2.441.7 4.514 2.259 5.707 4.293 1.194 2.034 1.399 4.355.564 6.392l-8.421-3.186-97.905-28.074-8.855-1.599c.323-2.208 1.71-4.115 3.813-5.242Zm4.548 14.816c.039-4.866.494-7.974.494-7.974-8.855-1.599-8.855-1.596-8.856-1.592l-.001.007-.003.019-.007.05-.021.157a57.133 57.133 0 0 0-.251 2.388 82.502 82.502 0 0 0-.283 6.489c-.031 5.353.404 12.732 2.338 20.629 3.84 15.676 14.188 35.161 40.404 42.679 26.278 7.535 45.102-3.657 56.377-15.053 5.672-5.733 9.793-11.818 12.484-16.412a81.819 81.819 0 0 0 3.053-5.701c.343-.71.604-1.282.786-1.69a50.439 50.439 0 0 0 .274-.633l.019-.047.007-.018.003-.006c.001-.003.003-.006-8.418-3.192 0 0-1.188 2.897-3.623 7.077-7.43 12.754-26.474 37.449-58.812 28.176-32.337-9.273-36.084-40.503-35.964-55.353Z" fill="#7E37DE"/></g><path opacity=".9" d="m280.83 82.287 3.447-1.999c.084-.11.084-.222 0-.222l-3.447-1.999-1.598-4.664c0-.11-.084-.11-.084 0l-1.598 4.553-3.448 2.11c-.084 0-.084.111 0 .222l3.448 2 1.598 4.552h.084l1.598-4.553Z" fill="#fff"/><path d="m247.073 114.955 4.046-2.238a.226.226 0 0 0 .04-.131.227.227 0 0 0-.04-.132l-4.046-2.237-1.816-5.132a.109.109 0 0 0-.035-.033.082.082 0 0 0-.086 0 .109.109 0 0 0-.035.033l-1.815 5.066-4.047 2.303a.234.234 0 0 0 0 .263l4.047 2.238 1.815 5.066c.069.132.121.132.156 0l1.816-5.066ZM174.453 57.55l3.359-1.91v-.255l-3.359-1.783-1.481-4.202h-.198l-1.481 4.202-3.26 1.783c-.099.128-.099.255 0 .255l3.26 1.91 1.481 4.33h.198l1.481-4.33Z" fill="#fff"/></g><defs><linearGradient id="lb" x1="216.277" y1="21.494" x2="193.098" y2="90.099" gradientUnits="userSpaceOnUse"><stop stop-color="#fff" stop-opacity="0"/><stop offset="1" stop-color="#fff"/></linearGradient><clipPath id="la"><path fill="#fff" d="M0 0h312v260H0z"/></clipPath></defs></svg><svg fill="none" viewBox="0 0 357 181" id="icon-ranking-year-header-left" xmlns="http://www.w3.org/2000/svg"><path d="M205.334 105.923c-99.671-31.894-98.3 132.779-213.564 52.354s-68.366-426.036 184.61-366.626c252.977 59.411 218.199 374.836 28.954 314.272Z" fill="#fff" fill-opacity=".1"/></svg><svg fill="none" viewBox="0 0 312 194" id="icon-ranking-year-header-right" xmlns="http://www.w3.org/2000/svg"><g clip-path="url(#na)"><path d="M131.105 201.065c-38.67-12.374-38.139 51.517-82.86 20.313C3.525 190.174 21.72 56.081 119.872 79.132c98.151 23.05 84.658 145.431 11.233 121.933Z" fill="#fff" fill-opacity=".1"/><path d="M230.837 102.268c-53.155-11.654-9.581-85.372-82.411-79.262-72.829 6.11-141.89 173.811-12.595 213.079 129.295 39.267 195.934-111.694 95.006-133.817Z" fill="#fff" fill-opacity=".2"/><path d="m158.08 0 121.815 42.989-45.635 59.108-76.18-23.18V0Z" fill="url(#nb)" style="mix-blend-mode:soft-light" opacity=".68"/><path fill="#FF7010" d="m169.888 159.744 12.996 3.727-6.21 21.66-12.997-3.727z"/><path fill-rule="evenodd" clip-rule="evenodd" d="M136.39 91.91c2.102-1.126 4.719-1.366 7.192-.657l97.905 28.074c2.441.7 4.513 2.259 5.707 4.293 1.194 2.034 1.399 4.355.564 6.392l-8.421-3.186-97.905-28.074-8.855-1.599c.323-2.208 1.71-4.115 3.813-5.242Zm4.548 14.816c.039-4.866.494-7.974.494-7.974-8.855-1.599-8.855-1.596-8.856-1.592l-.001.007-.003.019-.007.05-.021.157a57.133 57.133 0 0 0-.251 2.388 82.502 82.502 0 0 0-.283 6.489c-.031 5.353.404 12.732 2.338 20.629 3.84 15.676 14.188 35.161 40.404 42.679 26.278 7.535 45.102-3.657 56.377-15.053 5.672-5.733 9.793-11.818 12.484-16.412a81.819 81.819 0 0 0 3.053-5.701c.343-.71.604-1.282.786-1.69.09-.204.161-.368.212-.487l.061-.146.02-.047.007-.018.003-.006c.001-.003.003-.006-8.418-3.192 0 0-1.188 2.897-3.623 7.077-7.43 12.754-26.474 37.449-58.812 28.176-32.337-9.273-36.084-40.503-35.964-55.353Z" fill="#FF7010"/><rect x="149.508" y="173.591" width="45.067" height="11.717" rx="5.859" transform="rotate(16 149.508 173.591)" fill="#FF7010"/><rect x="158.172" y="176.076" width="36.053" height="11.717" rx="5.859" transform="rotate(16 158.172 176.076)" fill="#F81"/><rect x="139.78" y="182.991" width="58.587" height="11.717" rx="5.859" transform="rotate(16 139.78 182.991)" fill="#FF7010"/><rect x="148.444" y="185.476" width="49.573" height="11.717" rx="5.859" transform="rotate(16 148.444 185.476)" fill="#F81"/><rect x="153.88" y="68.421" width="94.64" height="13.52" rx="6.76" transform="rotate(16 153.88 68.42)" fill="#FF7010"/><rect x="171.642" y="73.514" width="76.163" height="13.52" rx="6.76" transform="rotate(16 171.642 73.514)" fill="#F81"/><path d="m156.651 83.28 77.978 22.36-10.31 35.956c-6.175 21.533-28.636 33.984-50.169 27.809-21.533-6.174-33.983-28.636-27.809-50.168l10.31-35.957Z" fill="#FF7010"/><mask id="nc" style="mask-type:alpha" maskUnits="userSpaceOnUse" x="144" y="83" width="91" height="88"><path d="m156.651 83.28 77.978 22.36-10.31 35.956c-6.175 21.533-28.636 33.984-50.169 27.809-21.533-6.174-33.983-28.636-27.809-50.168l10.31-35.957Z" fill="#FBB563"/></mask><g mask="url(#nc)"><path d="m170.695 91.527 64.982 18.633-11.056 38.555c-5.145 17.945-23.863 28.32-41.807 23.175-17.944-5.146-28.32-23.864-23.174-41.808l11.055-38.555Z" fill="#F81"/><path d="M192.459 123.065c.186 1.278.945 2.347 2.057 2.853l6.483 3.022c1.376.643 1.401 2.748.026 3.558l-6.427 3.825c-1.08.646-1.83 1.801-1.994 3.103l-.957 7.72c-.205 1.644-2.059 2.4-3.129 1.283l-5.086-5.237a3.349 3.349 0 0 0-3.272-.938L173.072 144c-1.499.38-2.665-1.263-1.973-2.746l3.279-7.054c.551-1.191.545-2.563-.047-3.688l-3.424-6.65c-.719-1.411.4-3.187 1.909-3.004l7.098.873c1.193.155 2.404-.349 3.256-1.33l4.969-5.842c1.058-1.233 2.923-.698 3.149.903l1.171 7.603Z" fill="#fff"/></g><mask id="nd" style="mask-type:alpha" maskUnits="userSpaceOnUse" x="179" y="100" width="77" height="92"><path transform="rotate(16 201.021 100.222)" fill="#D9D9D9" d="M201.021 100.222h56.333v78.416h-56.333z"/></mask><g mask="url(#nd)"><path fill-rule="evenodd" clip-rule="evenodd" d="M136.39 91.91c2.102-1.126 4.719-1.366 7.192-.657l97.905 28.074c2.441.7 4.513 2.259 5.707 4.293 1.194 2.034 1.399 4.355.564 6.392l-8.421-3.186-97.905-28.074-8.855-1.599c.323-2.208 1.71-4.115 3.813-5.242Zm4.548 14.816c.039-4.866.494-7.974.494-7.974-8.855-1.599-8.855-1.596-8.856-1.592l-.001.007-.003.019-.007.05-.021.157a57.133 57.133 0 0 0-.251 2.388 82.502 82.502 0 0 0-.283 6.489c-.031 5.353.404 12.732 2.338 20.629 3.84 15.676 14.188 35.161 40.404 42.679 26.278 7.535 45.102-3.657 56.377-15.053 5.672-5.733 9.793-11.818 12.484-16.412a81.819 81.819 0 0 0 3.053-5.701c.343-.71.604-1.282.786-1.69.09-.204.161-.368.212-.487l.061-.146.02-.047.007-.018.003-.006c.001-.003.003-.006-8.418-3.192 0 0-1.188 2.897-3.623 7.077-7.43 12.754-26.474 37.449-58.812 28.176-32.337-9.273-36.084-40.503-35.964-55.353Z" fill="#F81"/></g><path opacity=".9" d="m280.831 82.287 3.447-1.999c.084-.11.084-.222 0-.222l-3.447-1.999-1.598-4.664c0-.11-.084-.11-.084 0l-1.598 4.553-3.448 2.11c-.084 0-.084.111 0 .222l3.448 2 1.598 4.552h.084l1.598-4.553Z" fill="#fff"/><path d="m247.074 114.955 4.046-2.238a.226.226 0 0 0 .04-.131.227.227 0 0 0-.04-.132l-4.046-2.237-1.816-5.132a.109.109 0 0 0-.035-.033.082.082 0 0 0-.086 0 .109.109 0 0 0-.035.033l-1.815 5.066-4.047 2.303a.234.234 0 0 0 0 .263l4.047 2.238 1.815 5.066c.069.132.121.132.156 0l1.816-5.066ZM174.454 57.55l3.359-1.91v-.255l-3.359-1.783-1.481-4.202h-.198l-1.481 4.202-3.26 1.783c-.099.128-.099.255 0 .255l3.26 1.91 1.481 4.33h.198l1.481-4.33Z" fill="#fff"/></g><defs><linearGradient id="nb" x1="216.277" y1="21.494" x2="193.098" y2="90.099" gradientUnits="userSpaceOnUse"><stop stop-color="#fff" stop-opacity="0"/><stop offset="1" stop-color="#fff"/></linearGradient><clipPath id="na"><path fill="#fff" d="M0 0h312v260H0z"/></clipPath></defs></svg><svg fill="none" viewBox="0 0 24 24" id="icon-white-apkpure-lite" xmlns="http://www.w3.org/2000/svg"><path d="M18.617 15.756h3.005L20.12 18.76l-1.503-3.004Z" fill="#fff"/><path d="M20.712 14.358H22.5l-.894 1.788-.894-1.788ZM15.8 17.127h4.517l-2.259 4.518-2.258-4.518ZM15.658 16.693l-9.484-.002 2.396-4.83h9.481l-2.393 4.832Z" fill="#fff"/><path d="m15.658 16.693 2.393-4.81-4.714-9.633H8.6l7.057 14.443Z" fill="#fff"/><path d="M1.5 16.648 8.6 2.25h4.737l-9.51 19.171L1.5 16.648Z" fill="#fff"/></svg><svg fill="none" viewBox="0 0 14 14" id="icon-white-download" xmlns="http://www.w3.org/2000/svg"><path fill-rule="evenodd" clip-rule="evenodd" d="M4.085 3.89a.431.431 0 0 0-.642 0l-.64.69a.514.514 0 0 0 0 .69l3.613 3.888c.015.017.303.202.589.201.283 0 .564-.185.58-.201l3.613-3.888a.514.514 0 0 0 0-.69l-.641-.69a.431.431 0 0 0-.641 0l-2.04 2.195v-4.74c0-.259-.197-.47-.438-.47h-.875c-.242 0-.438.21-.438.47v4.74L4.085 3.89Zm-1.46 9.235h8.75c.967 0 1.75-.843 1.75-1.883V8.89c0-.26-.196-.471-.437-.471h-.875c-.242 0-.438.21-.438.47v1.413c0 .52-.392.941-.875.941h-7c-.483 0-.875-.421-.875-.941V8.889c0-.26-.196-.471-.437-.471h-.876c-.241 0-.437.21-.437.47v2.354c0 1.04.784 1.883 1.75 1.883Z" fill="#fff"/></svg><svg fill="none" viewBox="0 0 20 21" id="icon-youtube-button" xmlns="http://www.w3.org/2000/svg"><path fill-rule="evenodd" clip-rule="evenodd" d="M16.838 4.624c.752.205 1.346.81 1.547 1.579.365 1.391.365 4.297.365 4.297s0 2.906-.365 4.297a2.211 2.211 0 0 1-1.547 1.579c-1.365.374-6.838.374-6.838.374s-5.473 0-6.838-.374a2.215 2.215 0 0 1-1.547-1.579C1.25 13.407 1.25 10.5 1.25 10.5s0-2.906.365-4.3a2.211 2.211 0 0 1 1.547-1.578C4.527 4.25 10 4.25 10 4.25s5.473 0 6.838.374Zm-8.576 8.543 4.531-2.687-4.531-2.647v5.334Z" fill="url(#qa)" opacity=".9"/><defs><linearGradient id="qa" x1="1" y1="-1.5" x2="16.5" y2="23" gradientUnits="userSpaceOnUse"><stop stop-color="#74ECE8"/><stop offset="1" stop-color="#4492F4"/></linearGradient></defs></svg></svg>