<svg width="32" height="32" viewBox="0 0 32 32" fill="none" xmlns="http://www.w3.org/2000/svg">
<path fill-rule="evenodd" clip-rule="evenodd" d="M24.5389 23.6128C25.7179 23.6128 26.6622 22.6017 26.6622 21.3534L26.6645 18.6667H24.5389V21.3534H7.46722V8.92615H14.6666V6.66666H7.46722C6.2882 6.66666 5.33325 7.67778 5.33325 8.92615V21.3534C5.33325 22.6017 6.2882 23.6128 7.46722 23.6128H8.68662C8.68662 23.6989 8.68621 23.7796 8.68581 23.8552V23.8553C8.68052 24.8775 8.67997 24.9832 9.7777 24.9832H22.2221C23.3253 24.9832 23.3248 24.8764 23.3202 23.8401C23.3199 23.7689 23.3195 23.6932 23.3195 23.6128H24.5389ZM20.211 18.5788C20.0638 18.5266 19.9293 18.4484 19.8153 18.3487L15.0192 13.9661C14.9074 13.864 14.8187 13.7427 14.7582 13.6092C14.6977 13.4758 14.6666 13.3327 14.6666 13.1883C14.6666 13.0438 14.6977 12.9007 14.7582 12.7673C14.8187 12.6338 14.9074 12.5125 15.0192 12.4104C15.131 12.3082 15.2637 12.2272 15.4098 12.1719C15.5559 12.1166 15.7124 12.0881 15.8705 12.0881C16.0286 12.0881 16.1852 12.1166 16.3312 12.1719C16.4773 12.2272 16.61 12.3082 16.7218 12.4104L19.4676 14.9303V7.76229C19.4676 7.47171 19.5939 7.19303 19.8188 6.98756C20.0436 6.78209 20.3486 6.66666 20.6666 6.66666C20.9846 6.66666 21.2896 6.78209 21.5144 6.98756C21.7393 7.19303 21.8656 7.47171 21.8656 7.76229V14.9303L24.6114 12.4104C24.8371 12.204 25.1434 12.0881 25.4627 12.0881C25.782 12.0881 26.0882 12.204 26.314 12.4104C26.5397 12.6167 26.6666 12.8965 26.6666 13.1883C26.6666 13.48 26.5397 13.7598 26.314 13.9661L21.5179 18.3487C21.4039 18.4484 21.2694 18.5266 21.1222 18.5788C20.9787 18.6367 20.8235 18.6667 20.6666 18.6667C20.5097 18.6667 20.3545 18.6367 20.211 18.5788Z" fill="white"/>
</svg>
