<svg width="15" height="14" viewBox="0 0 15 14" fill="none" xmlns="http://www.w3.org/2000/svg">
<path fill-rule="evenodd" clip-rule="evenodd" d="M13.1037 12.1108C13.8775 12.1108 14.4971 11.4473 14.4971 10.628L14.4986 8.86487H13.1037V10.628H1.90041V2.47266H6.62504V0.989868H1.90041C1.12669 0.989868 0.5 1.65342 0.5 2.47266V10.628C0.5 11.4473 1.12669 12.1108 1.90041 12.1108H2.70065C2.70065 12.1673 2.70038 12.2202 2.70012 12.2699V12.2699C2.69664 12.9407 2.69629 13.0101 3.41667 13.0101H11.5833C12.3073 13.0101 12.307 12.94 12.3039 12.26C12.3037 12.2132 12.3035 12.1635 12.3035 12.1108H13.1037ZM10.2635 8.80718C10.1669 8.77296 10.0787 8.72165 10.0039 8.65619L6.85645 5.78016C6.78309 5.71312 6.72489 5.63353 6.68518 5.54594C6.64548 5.45835 6.62504 5.36447 6.62504 5.26966C6.62504 5.17486 6.64548 5.08098 6.68518 4.99339C6.72489 4.9058 6.78309 4.82621 6.85645 4.75917C6.92982 4.69213 7.01691 4.63895 7.11277 4.60267C7.20863 4.56639 7.31136 4.54772 7.41512 4.54772C7.51887 4.54772 7.62161 4.56639 7.71747 4.60267C7.81332 4.63895 7.90042 4.69213 7.97379 4.75917L9.77569 6.41289V1.70888C9.77569 1.51818 9.85859 1.3353 10.0062 1.20046C10.1537 1.06562 10.3539 0.989868 10.5625 0.989868C10.7712 0.989868 10.9714 1.06562 11.1189 1.20046C11.2665 1.3353 11.3494 1.51818 11.3494 1.70888V6.41289L13.1513 4.75917C13.2995 4.62378 13.5004 4.54772 13.71 4.54772C13.9195 4.54772 14.1205 4.62378 14.2686 4.75917C14.4168 4.89456 14.5 5.07819 14.5 5.26966C14.5 5.46114 14.4168 5.64477 14.2686 5.78016L11.1212 8.65619C11.0464 8.72165 10.9581 8.77296 10.8615 8.80718C10.7674 8.84522 10.6655 8.86487 10.5625 8.86487C10.4596 8.86487 10.3577 8.84522 10.2635 8.80718Z" fill="#00A6ED"/>
</svg>
